<svg xmlns="http://www.w3.org/2000/svg" viewBox="-60 -500 1512 1160" width="1512" height="1160" role="img" aria-label="Nutzerplan: Auto-Verdrahtung">
  <rect x="-100000" y="-100000" width="200000" height="200000" fill="#0f172a"/>
  <text x="-48" y="-472" fill="#e2e8f0" font-family="monospace" font-size="16">nutzerplan-autowire — 12-px-Freigabe</text>
  <path d="M 192 36 L 206 36 Q 216 36 216 46 L 216 242 Q 216 252 226 252 L 288 252" fill="none" stroke="#38bdf8" stroke-width="4" stroke-linecap="round"/>
  <path d="M 134.4 120 L 134.4 350 Q 134.4 360 144.4 360 L 374 360 Q 384 360 384 370 L 384 384" fill="none" stroke="#38bdf8" stroke-width="4" stroke-linecap="round"/>
  <path d="M 480 468 L 542 468 Q 552 468 552 458 L 552 262 Q 552 252 562 252 L 576 252" fill="none" stroke="#38bdf8" stroke-width="4" stroke-linecap="round"/>
  <path d="M 480 228 L 494 228 Q 504 228 504 218 L 504 70 Q 504 60 514 60 L 576 60" fill="none" stroke="#38bdf8" stroke-width="4" stroke-linecap="round"/>
  <path d="M 710.4 192 L 710.4 178 Q 710.4 168 700.4 168 L 682 168 Q 672 168 672 158 L 672 120" fill="none" stroke="#38bdf8" stroke-width="4" stroke-linecap="round"/>
  <path d="M 768 36 L 798 36 Q 808 36 808 46 L 808 250 Q 808 260 818 260 L 1200 260" fill="none" stroke="#38bdf8" stroke-width="4" stroke-linecap="round"/>
  <path d="M 768 276 L 1168 276 Q 1176 276 1176 268 L 1176 268 Q 1176 260 1184 260 L 1200 260" fill="none" stroke="#38bdf8" stroke-width="4" stroke-linecap="round"/>
  <path d="M 768 36 L 814 36 Q 824 36 824 46 L 824 58 Q 824 68 834 68 L 1134 68 Q 1144 68 1144 78 L 1144 252 A 8 8 0 0 1 1144 268 A 8 8 0 0 1 1144 284 L 1144 530 Q 1144 540 1154 540 L 1200 540" fill="none" stroke="#38bdf8" stroke-width="4" stroke-linecap="round"/>
  <path d="M 768 276 L 784 276 Q 792 276 792 284 L 792 284 Q 792 292 800 292 L 1122 292 Q 1132 292 1132 302 L 1132 514 Q 1132 524 1142 524 A 2 2 0 0 1 1146 524 L 1152 524 Q 1160 524 1160 532 L 1160 532 Q 1160 540 1168 540 L 1200 540" fill="none" stroke="#38bdf8" stroke-width="4" stroke-linecap="round"/>
  <path d="M 57.6 -280 L 57.6 -234 Q 57.6 -224 67.6 -224 L 374 -224 Q 384 -224 384 -214 L 384 0" fill="none" stroke="#38bdf8" stroke-width="4" stroke-linecap="round"/>
  <path d="M 134.4 -280 L 134.4 -246 Q 134.4 -236 144.4 -236 L 386 -236 Q 396 -236 396 -226 L 396 -46 Q 396 -40 390 -40 L 390 -40 Q 384 -40 384 -34 L 384 0" fill="none" stroke="#38bdf8" stroke-width="4" stroke-linecap="round"/>
  <path d="M 345.6 120 L 345.6 134 Q 345.6 144 355.6 144 L 374 144 Q 384 144 384 154 L 384 192" fill="none" stroke="#38bdf8" stroke-width="4" stroke-linecap="round"/>
  <path d="M 480 84 L 496 84 A 8 8 0 0 1 512 84 L 526 84 Q 536 84 536 94 L 536 242 Q 536 252 546 252 L 576 252" fill="none" stroke="#38bdf8" stroke-width="4" stroke-linecap="round"/>
  <rect x="0" y="0" width="192" height="120" fill="#1e293b" stroke="#64748b" stroke-width="2" rx="8"/>
  <text x="12" y="28" fill="#e2e8f0" font-family="monospace" font-size="14">Batterie</text>
  <rect x="0" y="-400" width="192" height="120" fill="#1e293b" stroke="#64748b" stroke-width="2" rx="8"/>
  <text x="12" y="-372" fill="#e2e8f0" font-family="monospace" font-size="14">Solar</text>
  <rect x="1200" y="200" width="192" height="120" fill="#1e293b" stroke="#64748b" stroke-width="2" rx="8"/>
  <text x="1212" y="228" fill="#e2e8f0" font-family="monospace" font-size="14">Verbraucher 1</text>
  <rect x="1200" y="480" width="192" height="120" fill="#1e293b" stroke="#64748b" stroke-width="2" rx="8"/>
  <text x="1212" y="508" fill="#e2e8f0" font-family="monospace" font-size="14">Verbraucher 2</text>
  <rect x="288" y="192" width="192" height="120" fill="#1e293b" stroke="#64748b" stroke-width="2" rx="8"/>
  <text x="300" y="220" fill="#e2e8f0" font-family="monospace" font-size="14">Plus-Schiene</text>
  <rect x="576" y="192" width="192" height="120" fill="#1e293b" stroke="#64748b" stroke-width="2" rx="8"/>
  <text x="588" y="220" fill="#e2e8f0" font-family="monospace" font-size="14">Minus-Schiene</text>
  <rect x="576" y="0" width="192" height="120" fill="#1e293b" stroke="#64748b" stroke-width="2" rx="8"/>
  <text x="588" y="28" fill="#e2e8f0" font-family="monospace" font-size="14">12V Sicherungskasten</text>
  <rect x="288" y="384" width="192" height="120" fill="#1e293b" stroke="#64748b" stroke-width="2" rx="8"/>
  <text x="300" y="412" fill="#e2e8f0" font-family="monospace" font-size="14">Smart Shunt</text>
  <rect x="288" y="0" width="192" height="120" fill="#1e293b" stroke="#64748b" stroke-width="2" rx="8"/>
  <text x="300" y="28" fill="#e2e8f0" font-family="monospace" font-size="14">MPPT Laderegler</text>
  <circle cx="192" cy="36" r="6" fill="#22c55e"/>
  <circle cx="288" cy="252" r="6" fill="#f97316"/>
  <circle cx="134.39999999999998" cy="120" r="6" fill="#22c55e"/>
  <circle cx="384" cy="384" r="6" fill="#f97316"/>
  <circle cx="480" cy="468" r="6" fill="#22c55e"/>
  <circle cx="576" cy="252" r="6" fill="#f97316"/>
  <circle cx="480" cy="228" r="6" fill="#22c55e"/>
  <circle cx="576" cy="60" r="6" fill="#f97316"/>
  <circle cx="710.4" cy="192" r="6" fill="#22c55e"/>
  <circle cx="672" cy="120" r="6" fill="#f97316"/>
  <circle cx="768" cy="36" r="6" fill="#22c55e"/>
  <circle cx="1200" cy="260" r="6" fill="#f97316"/>
  <circle cx="768" cy="276" r="6" fill="#22c55e"/>
  <circle cx="1200" cy="260" r="6" fill="#f97316"/>
  <circle cx="768" cy="36" r="6" fill="#22c55e"/>
  <circle cx="1200" cy="540" r="6" fill="#f97316"/>
  <circle cx="768" cy="276" r="6" fill="#22c55e"/>
  <circle cx="1200" cy="540" r="6" fill="#f97316"/>
  <circle cx="57.599999999999994" cy="-280" r="6" fill="#22c55e"/>
  <circle cx="384" cy="0" r="6" fill="#f97316"/>
  <circle cx="134.39999999999998" cy="-280" r="6" fill="#22c55e"/>
  <circle cx="384" cy="0" r="6" fill="#f97316"/>
  <circle cx="345.6" cy="120" r="6" fill="#22c55e"/>
  <circle cx="384" cy="192" r="6" fill="#f97316"/>
  <circle cx="480" cy="84" r="6" fill="#22c55e"/>
  <circle cx="576" cy="252" r="6" fill="#f97316"/>
</svg>
