<svg xmlns="http://www.w3.org/2000/svg" width="1086" height="1440" viewBox="0 0 1086 1440">
  <title>p03-busbar-fanout — Busbar + Fan-out</title>
  <rect width="100%" height="100%" fill="#0b0f14"/>
  <text x="60" y="32" fill="#8b98a5" font-family="monospace" font-size="14">p03-busbar-fanout: X=0 Bends=14 L=3680.80 Clearance=0</text>
  <rect x="60" y="500" width="192" height="120" fill="#151b23" stroke="#31404f" stroke-width="1.5" rx="8"/>
  <text x="70" y="524" fill="#c7d0d9" font-family="monospace" font-size="13">batt</text>
  <rect x="420" y="500" width="192" height="120" fill="#151b23" stroke="#31404f" stroke-width="1.5" rx="8"/>
  <text x="430" y="524" fill="#c7d0d9" font-family="monospace" font-size="13">bus</text>
  <rect x="820" y="60" width="192" height="120" fill="#151b23" stroke="#31404f" stroke-width="1.5" rx="8"/>
  <text x="830" y="84" fill="#c7d0d9" font-family="monospace" font-size="13">cons-a</text>
  <rect x="820" y="360" width="192" height="120" fill="#151b23" stroke="#31404f" stroke-width="1.5" rx="8"/>
  <text x="830" y="384" fill="#c7d0d9" font-family="monospace" font-size="13">cons-b</text>
  <rect x="820" y="660" width="192" height="120" fill="#151b23" stroke="#31404f" stroke-width="1.5" rx="8"/>
  <text x="830" y="684" fill="#c7d0d9" font-family="monospace" font-size="13">cons-c</text>
  <rect x="820" y="960" width="192" height="120" fill="#151b23" stroke="#31404f" stroke-width="1.5" rx="8"/>
  <text x="830" y="984" fill="#c7d0d9" font-family="monospace" font-size="13">cons-d</text>
  <rect x="820" y="1260" width="192" height="120" fill="#151b23" stroke="#31404f" stroke-width="1.5" rx="8"/>
  <text x="830" y="1284" fill="#c7d0d9" font-family="monospace" font-size="13">cons-e</text>
  <path d="M 252 536 L 420 536" fill="none" stroke="#39b2f5" stroke-width="2.5"/>
  <circle cx="252" cy="536" r="4" fill="#39b2f5"/>
  <path d="M 477.60 500 L 477.60 204 L 877.60 204 L 877.60 180" fill="none" stroke="#39b2f5" stroke-width="2.5"/>
  <circle cx="477.60" cy="500" r="4" fill="#39b2f5"/>
  <path d="M 612 536 L 652 536 L 652 396 L 820 396" fill="none" stroke="#39b2f5" stroke-width="2.5"/>
  <circle cx="612" cy="536" r="4" fill="#39b2f5"/>
  <path d="M 612 536 L 636 536 L 636 696 L 820 696" fill="none" stroke="#39b2f5" stroke-width="2.5"/>
  <circle cx="612" cy="536" r="4" fill="#39b2f5"/>
  <path d="M 477.60 620 L 477.60 936 L 877.60 936 L 877.60 960" fill="none" stroke="#39b2f5" stroke-width="2.5"/>
  <circle cx="477.60" cy="620" r="4" fill="#39b2f5"/>
  <path d="M 477.60 620 L 477.60 660 L 493.60 660 L 493.60 924 L 1026 924 L 1026 1236 L 877.60 1236 L 877.60 1260" fill="none" stroke="#39b2f5" stroke-width="2.5"/>
  <circle cx="477.60" cy="620" r="4" fill="#39b2f5"/>
</svg>
